<svg xmlns="http://www.w3.org/2000/svg" viewBox="0 0 29.7 23.63"><defs><style>.cls-1{fill:#fff;}</style></defs><g id="Layer_2" data-name="Layer 2"><g id="Nav"><path class="cls-1" d="M17.18,19.16c-2.88,0-5.77-.06-8.66,0-1.1,0-1.43-.38-1.63-1.39C5.85,12.52,4.71,7.26,3.66,2c-.15-.76-.44-1-1.16-.93s-1.28,0-1.91,0C.23,1.07,0,.93,0,.56S.19,0,.55,0c1.1,0,2.21,0,3.31,0,.74,0,.65.7.74,1.15.56,2.56,1.1,5.14,1.58,7.72.16.85.45,1.17,1.39,1.15,4.24-.06,8.49,0,12.74,0h.89c.34,0,.59.15.62.5s-.25.61-.63.61c-.81,0-1.62,0-2.42,0-3.7,0-7.39,0-11.09,0-.78,0-1,.11-.82,1,.44,1.68.76,3.39,1.06,5.1.11.59.27.88.95.88q8.28,0,16.56,0c.55,0,.89-.09.93-.73A4.24,4.24,0,0,1,26.65,16c.31-.81-.06-.89-.75-.89-4.16,0-8.32,0-12.49,0h-.76c-.41,0-.94.09-.93-.55s.54-.51.95-.51c4.29,0,8.58-.06,12.86,0,1.2,0,1.72-.27,1.86-1.5a28.88,28.88,0,0,1,.87-4.11c.28-1,.13-1.39-1.05-1.37-4.16.07-8.32,0-12.49,0-.29,0-.59,0-.89,0a.6.6,0,0,1-.59-.57c0-.34.25-.51.59-.53h.76c4.59,0,9.18,0,13.76,0,1.14,0,1.54.28,1.27,1.45q-1.2,5.4-2.29,10.82c-.15.75-.52.92-1.23.91C23.13,19.14,20.16,19.16,17.18,19.16Z"/><path class="cls-1" d="M10.12,23.63a1.81,1.81,0,0,1-1.9-1.79A1.91,1.91,0,0,1,10,19.92a1.86,1.86,0,0,1,1.9,1.82A1.81,1.81,0,0,1,10.12,23.63Zm.68-1.93a.69.69,0,0,0-.71-.65.72.72,0,0,0-.75.81.68.68,0,0,0,.78.63C10.57,22.46,10.79,22.21,10.8,21.7Z"/><path class="cls-1" d="M25.86,21.82a1.83,1.83,0,1,1-3.66-.06,1.83,1.83,0,1,1,3.66.06Zm-2.59,0a.72.72,0,0,0,.73.69.65.65,0,0,0,.76-.64.68.68,0,0,0-.76-.78A.73.73,0,0,0,23.27,21.8Z"/></g></g></svg>