<svg xmlns="http://www.w3.org/2000/svg" viewBox="0 0 30 29.64012"><defs><style>.cls-1{fill:#7c1f5d;}.cls-2{fill:#fff;fill-rule:evenodd;}</style></defs><g id="Layer_2" data-name="Layer 2"><g id="footer"><path class="cls-1" d="M15.00008,29.64012A14.92774,14.92774,0,0,1,0,14.82012a15.00109,15.00109,0,0,1,30,0A14.9277,14.9277,0,0,1,15.00008,29.64012Z"/><path class="cls-2" d="M12.64775,14.89v8.58948a.225.225,0,0,0,.22643.22366h3.22845a.22507.22507,0,0,0,.22644-.22366V14.75007h2.34052a.22534.22534,0,0,0,.22561-.20482l.22511-2.63018a.22486.22486,0,0,0-.22566-.24261H16.32907v-1.866a.79671.79671,0,0,1,.80148-.79187h1.80383a.22513.22513,0,0,0,.22649-.22372V6.16065a.22513.22513,0,0,0-.22649-.22372h-3.048a3.21942,3.21942,0,0,0-3.23862,3.19984v2.53569H11.03352a.22509.22509,0,0,0-.22643.22377V14.5264a.225.225,0,0,0,.22643.22367h1.61423Z"/></g></g></svg>