<svg xmlns="http://www.w3.org/2000/svg" viewBox="0 0 24.33 24.31"><defs><style>.cls-1{fill:#fff;}</style></defs><g id="Layer_2" data-name="Layer 2"><g id="Nav"><path class="cls-1" d="M0,7.5a7.46,7.46,0,0,1,4.76-7,7.55,7.55,0,0,1,8.36,2.11,7.33,7.33,0,0,1,.81,8.54c-.58,1-.41,1.33.46,1.91C17.25,14.93,20,17,22.87,18.87A2.86,2.86,0,0,1,24.26,22a2.63,2.63,0,0,1-2.11,2.22,2.93,2.93,0,0,1-3.29-1.33c-1.94-2.89-4-5.71-5.92-8.6-.53-.8-.87-.88-1.74-.38A7.42,7.42,0,0,1,0,7.5Zm13.65-.07A6.1,6.1,0,0,0,7.48,1.27,6.22,6.22,0,0,0,1.2,7.52a6.36,6.36,0,0,0,6.23,6.23A6.24,6.24,0,0,0,13.65,7.43Zm1.79,7.82-.2.2q2.38,3.47,4.79,6.91A1.67,1.67,0,1,0,22.34,20Z"/><path class="cls-1" d="M12.72,7.51a5.71,5.71,0,0,1-1.27,3.35c-.29.34-.66.63-1.08.31s-.23-.69,0-1a3.93,3.93,0,0,0,0-5.37c-.3-.39-.4-.79,0-1.1s.71,0,1,.33A5.66,5.66,0,0,1,12.72,7.51Z"/></g></g></svg>