<svg xmlns="http://www.w3.org/2000/svg" viewBox="0 0 29.58677 29.23196"><defs><style>.cls-1{fill:#7c1f5d;}.cls-2{fill:#fff;fill-rule:evenodd;}</style></defs><g id="Layer_2" data-name="Layer 2"><g id="footer"><path class="cls-1" d="M14.79347,29.232A14.72215,14.72215,0,0,1,0,14.616a14.79446,14.79446,0,0,1,29.58677,0A14.72211,14.72211,0,0,1,14.79347,29.232Z"/><path class="cls-2" d="M15.49149,5.10188A8.88836,8.88836,0,0,0,6.56,13.92622a8.68,8.68,0,0,0,1.42651,4.78249L6.62976,21.66156a.76338.76338,0,0,0,.11676.81861.78629.78629,0,0,0,.79976.243l3.73837-1.01333a9.01513,9.01513,0,0,0,4.20684,1.04086,8.82506,8.82506,0,1,0,0-17.64884Zm0,16.10764a7.43245,7.43245,0,0,1-3.7117-.99164.78907.78907,0,0,0-.59981-.07776l-2.44222.662.85061-1.85138a.7627.7627,0,0,0-.07767-.76939,7.17046,7.17046,0,0,1-1.39085-4.25515,7.37218,7.37218,0,1,1,7.37164,7.2833Z"/><path class="cls-2" d="M18.92535,15.24769a1.54207,1.54207,0,0,0-1.30141-.28972c-.338.13672-.5539.6595-.77283.92652a.32663.32663,0,0,1-.41926.0898,5.8762,5.8762,0,0,1-2.94169-2.48962.35351.35351,0,0,1,.04564-.48679,1.96084,1.96084,0,0,0,.53444-.85717,1.85683,1.85683,0,0,0-.239-1.01461,2.40442,2.40442,0,0,0-.758-1.1289,1.04913,1.04913,0,0,0-1.12834.16569,2.25111,2.25111,0,0,0-.79391,1.79263,2.518,2.518,0,0,0,.0715.56884,4.68206,4.68206,0,0,0,.55232,1.25769,9.90934,9.90934,0,0,0,.57667.86633,8.85916,8.85916,0,0,0,2.50091,2.29431,7.6059,7.6059,0,0,0,1.55964.73277,3.50342,3.50342,0,0,0,1.81546.28334,2.195,2.195,0,0,0,1.6462-1.20992,1.03947,1.03947,0,0,0,.07648-.61735C19.85622,15.70626,19.27349,15.45344,18.92535,15.24769Z"/></g></g></svg>